# xmcd
#
# Track frame offsets:
#	150
#	16640
#	29919
#	45508
#	60300
#	74439
#	95978
#	106176
#	116788
#	133287
#
# Disc length: 2069 seconds
# Revision: 2
# Processed by: cddbd v1.5.2PL0 Copyright (c) Steve Scherf et al.
# Submitted via: dBpowerAMP V12.0
#
DISCID=8d08130a
DTITLE=王若琳 - New Tokyo Terror - The Adult Storybook
DYEAR=2009
DGENRE=Chinese Blues
TTITLE0=Adult Crap
TTITLE1=I Guess I'm Paranoid
TTITLE2=Longing for Romance
TTITLE3=His Remedy
TTITLE4=Nobody's A Nun
TTITLE5=Even If We Did
TTITLE6=How I Feel About Businessmen
TTITLE7=Man
TTITLE8=Palpitation
TTITLE9=I'm Pathetic Enough
EXTD=
EXTT0=
EXTT1=
EXTT2=
EXTT3=
EXTT4=
EXTT5=
EXTT6=
EXTT7=
EXTT8=
EXTT9=
PLAYORDER=
